<svg fill="none" height="20" viewBox="0 0 24 20" width="24" xmlns="http://www.w3.org/2000/svg"><path d="m24 2.5998c-.9.4-1.8.7-2.8.8 1-.6 1.8-1.6 2.2-2.699995-1 .599995-2 .999995-3.1 1.199995-.9-.999995-2.2-1.599995-3.6-1.599995-2.7 0-4.9 2.199995-4.9 4.899995 0 .4 0 .8.1 1.1-4.2-.2-7.8-2.2-10.2-5.2-.5.8-.7 1.6-.7 2.5 0 1.7.9 3.2 2.2 4.1-.8 0-1.6-.2-2.2-.6v.1c0 2.4 1.7 4.4 3.9 4.8-.4.1-.8.2-1.3.2-.3 0-.6 0-.9-.1.6 2 2.4 3.4 4.6 3.4-1.7 1.3-3.8 2.1-6.1 2.1-.4 0-.8 0-1.2-.1 2.2 1.4 4.8 2.2 7.5 2.2 9.1 0 14-7.5 14-14 0-.2 0-.4 0-.6 1-.69999 1.8-1.6 2.5-2.5z" fill="#1b91ee"/></svg>