<svg fill="none" height="32" viewBox="0 0 32 32" width="32" xmlns="http://www.w3.org/2000/svg"><path clip-rule="evenodd" d="m6.42923 3.95002h9.57077c6.6551 0 12.05 5.39505 12.05 12.05008 0 6.6551-5.3949 12.0502-12.05 12.0502-6.65506 0-12.04999-5.3951-12.04999-12.0502h-3.505552c0 8.5911 6.964352 15.5556 15.555542 15.5556 2.7344 0 5.304-.7056 7.5366-1.9445h6.0745v-6.0742c1.239-2.2328 1.9445-4.8024 1.9445-7.5369 0-8.59105-6.9644-15.55552-15.5556-15.55552h-15.555542v2.47435l9.310882 9.31457c-.66461 1.0994-1.04699 2.3883-1.04699 3.7666 0 4.0271 3.26465 7.2917 7.29165 7.2917s7.2917-3.2646 7.2917-7.2917c0-4.027-3.2647-7.29163-7.2917-7.29163-1.3779 0-2.6667.38227-3.7659 1.04652zm9.57077 15.83638c2.0911 0 3.7861-1.6953 3.7861-3.7863s-1.695-3.7862-3.7861-3.7862-3.7861 1.6952-3.7861 3.7862 1.695 3.7863 3.7861 3.7863z" fill="#79f080" fill-rule="evenodd"/></svg>