<svg fill="none" height="44" viewBox="0 0 44 44" width="44" xmlns="http://www.w3.org/2000/svg"><rect fill="#fff" fill-opacity=".2" height="44" rx="22" width="44"/><g stroke="#fff" stroke-linecap="round" stroke-linejoin="round" stroke-width="1.5"><path d="m19.364 28.5003-.932.932c-.8439.8439-1.9885 1.318-3.182 1.318s-2.3381-.4741-3.182-1.318-1.318-1.9885-1.318-3.182.4741-2.3381 1.318-3.182l4.773-4.774c.8002-.8021 1.8736-1.2727 3.0056-1.318 1.1321-.0454 2.2396.338 3.1013 1.0735.8618.7355 1.4144 1.769 1.5475 2.8941.1332 1.1252-.163 2.2591-.8294 3.1754"/><path d="m24.8181 15.5671.75-.75c.8439-.844 1.9885-1.3181 3.182-1.3181s2.3381.4741 3.182 1.3181c.8439.8439 1.318 1.9885 1.318 3.182 0 1.1934-.4741 2.338-1.318 3.182l-4.773 4.773c-.8004.8016-1.8737 1.272-3.0057 1.317-1.1319.045-2.2392-.3385-3.1008-1.0741-.8615-.7355-1.414-1.769-1.547-2.894s.1632-2.2588.8295-3.1749"/></g></svg>