<svg fill="none" height="20" viewBox="0 0 24 20" width="24" xmlns="http://www.w3.org/2000/svg"><path d="m21.543 4.95767c.0146.21605.0146.43211.0146.65016 0 6.64407-4.9531 14.30667-14.01001 14.30667v-.004c-2.67544.004-5.2953-.7786-7.54759-2.2542.389031.0478.780012.0717 1.17197.0727 2.21718.002 4.37099-.7577 6.11529-2.1566-2.107-.0408-3.95466-1.4437-4.60012-3.4918.73809.1454 1.4986.1155 2.22304-.0866-2.29714-.4739-3.94979-2.53494-3.94979-4.92852 0-.0219 0-.04281 0-.06372.68446.38931 1.45082.60536 2.23473.62926-2.16355-1.47657-2.830464-4.41576-1.52394-6.713753 2.49993 3.141313 6.18842 5.050993 10.14792 5.253113-.3968-1.74639.1453-3.57642 1.4245-4.80407 1.9832-1.903707 5.1023-1.806132 6.9665.21805 1.1028-.22203 2.1597-.635232 3.1269-1.220682-.3676 1.163932-1.1369 2.152622-2.1645 2.780882.9759-.11748 1.9295-.38432 2.8275-.79155-.6611 1.0116-1.4937 1.89276-2.457 2.60466z" fill="#c7ffcb"/></svg>