<svg fill="none" height="462" viewBox="0 0 589 462" width="589" xmlns="http://www.w3.org/2000/svg" xmlns:xlink="http://www.w3.org/1999/xlink"><radialGradient id="a" cx="0" cy="0" gradientTransform="matrix(-321.0010441 -246.99886771 696.64205089 -905.35971996 421 438)" gradientUnits="userSpaceOnUse" r="1"><stop offset=".485694" stop-color="#fff"/><stop offset="1" stop-color="#fff" stop-opacity="0"/></radialGradient><clipPath id="b"><path d="m0 0h589v462h-589z"/></clipPath><g clip-path="url(#b)" opacity=".4"><path clip-rule="evenodd" d="m96.0807 6.51148-92.89164 92.89172c-5.44446 5.4448-1.59462 14.7388 6.10845 14.7388h470.27349c4.918 0 9.554-1.967 12.924-5.337l92.899-92.8991c5.445-5.4445 1.595-14.73915-6.108-14.73915h-470.274c-4.759 0-9.402 1.95996-12.9313 5.34473zm12.9313-6.344732c-5.037 0-9.9269 2.074302-13.631 5.630252l-92.89905 92.8991c-6.07473 6.0749-1.77797 16.4459 6.81556 16.4459h470.27349c5.186 0 10.075-2.074 13.631-5.63l92.899-92.899c6.075-6.0747 1.778-16.446252-6.815-16.446252zm0 347.853252c-4.918 0-9.554 1.967-12.9239 5.337l-92.89904 92.899c-5.44446 5.444-1.59462 14.739 6.10845 14.739h470.27349c4.918 0 9.554-1.967 12.924-5.337l92.899-92.899c5.445-5.445 1.595-14.739-6.108-14.739zm0-1c-5.186 0-10.0751 2.074-13.631 5.63l-92.89905 92.899c-6.07473 6.075-1.77797 16.446 6.81556 16.446h470.27349c5.186 0 10.075-2.074 13.631-5.63l92.899-92.899c6.075-6.075 1.778-16.446-6.815-16.446zm370.559-173.538c4.918 0 9.554 1.967 12.924 5.337l92.899 92.899c5.445 5.445 1.595 14.739-6.108 14.739h-470.274c-4.918 0-9.554-1.967-12.9239-5.337l-92.89904-92.899c-5.44446-5.444-1.59462-14.739 6.10845-14.739zm13.631 4.63c-3.556-3.556-8.445-5.63-13.631-5.63h-470.27349c-8.59353 0-12.89029 10.371-6.81556 16.446l92.89905 92.899c3.5559 3.556 8.445 5.63 13.631 5.63h470.274c8.593 0 12.89-10.371 6.815-16.446z" fill="url(#a)" fill-rule="evenodd"/></g></svg>