<svg fill="none" height="519" viewBox="0 0 839 519" width="839" xmlns="http://www.w3.org/2000/svg"><g fill="#c3f1c5" opacity=".75"><path d="m0 137.971 60.7322-60.6801v18.1362l-60.7322 60.6799zm47.1608 104.749h-18.1518l60.7321-60.68h18.1519zm13.5714-65.087v4.407h13.7411l-60.7322 60.68h-13.7411v-4.407zm-60.7322-6.271 60.7322-60.68v18.136l-60.7322 60.68zm0 33.56 60.7322-60.68v17.967l-60.7322 60.68zm167.098-100.003 60.733-60.8497v18.1363l-60.733 60.6804zm0 66.782 60.733-60.68v18.136l-113.661 113.563h-18.1521l60.7321-60.68h5.259l5.089-4.915zm-104.4997 71.019 60.7317-60.68h18.152l-60.9016 60.68zm104.4997-104.41 60.733-60.6801v18.1362l-60.733 60.6799zm-37.66 104.41 98.393-98.308v18.136l-80.242 80.172zm-129.438-238.48256 4.24107-4.23744h18.15183l-22.3929 22.2042zm144.366 56.44266 51.741-51.86623 9.161 9.15283-42.92 42.8829-.339-.1695zm-67.0088 0 60.7318-60.6801h18.152l-60.732 60.6801zm-77.3572-23.0517 37.6607-37.6284h18.1518l-55.8125 55.7647zm0 66.9516 104.67-104.58h18.152l-60.7327 60.6801h-1.3571v1.1865l-60.7322 60.6804zm0-33.5606 71.2501-71.0194h18.1518l-89.4019 89.1557zm167.098.3391 45.804-45.7644 8.991 8.9834-54.795 54.9172zm-38.169-10.6784h-17.982l60.732-60.6801h15.607l1.187 1.18648zm52.08 182.0399h-17.982l64.804-64.748v18.137z"/><path d="m471.099 219.499 7.125 11.018-12.215 12.203h-18.151zm13.232 20.34 1.866 2.881h-4.75zm-51.741 2.881h-18.152l43.598-43.56 7.125 11.017zm-31.724-20 43.938-43.9 7.125 11.017-43.938 43.9zm-26.294-40.51 115.187-115.089v18.1362l-108.062 107.9698zm13.232 20.34 101.955-102.038v18.136l-29.178 29.154-26.465 14.577 4.75 7.288-43.937 43.73zm-39.527-61.02 2.036-2.034 40.714-22.543-35.625 35.595zm-86.348-14.068 60.732-60.68v18.1362l-60.732 60.6798zm0 33.561 60.732-60.85v18.136l-60.732 60.68zm0 33.391 60.732-60.68v18.136l-60.732 60.68zm106.705-21.527-7.125-11.017 64.125-64.0699 3.393-1.8645v-1.5255l60.732-60.6801v18.1362zm-45.973 45.765-24.089 24.068h-17.982l42.071-42.204zm0-51.527v18.136l-57.509 57.459h-3.223v-14.915zm0 66.951v8.644h-8.652zm-60.732-140.0049 94.152-94.0711h18.151l-112.303 112.207zm67.009-33.391 60.732-60.6801h17.982l-60.732 60.6801zm-67.009-33.5605 27.312-27.1196h17.982l-45.294 45.2558zm0 33.5605 60.732-60.6801h18.152l-78.884 78.6468zm100.428 0 60.733-60.6801h18.151l-60.732 60.6801zm66.67.1695 60.732-60.680103v18.136203l-60.732 60.6801zm-33.25-.1695 60.732-60.6801h18.152l-60.732 60.6801zm-133.848-48.8153v-11.8648h11.875z"/><path d="m751.688 202.55v17.966l-22.223 22.204h-17.982zm0 33.391v6.779h-6.786zm-227.83-106.784 129.268-129.157h18.151l-147.419 147.124zm28.839-129.157h18.152l-46.991 46.7813v-17.9667zm33.42 0h18.151l-80.41 80.3418v-18.1362zm27.482 139.835 42.919-43.0519 8.652 9.4919-42.919 43.052zm24.598 26.951-8.652-9.492 42.92-43.053 8.652 9.492zm-114.339-4.238 100.598-100.5119 8.652 9.3224-42.92 43.0525-5.598-6.102v11.695l-60.732 60.68zm162.687-162.548h18.152l-60.732 60.6801h-18.152zm-89.062 122.377 43.089-42.8827 8.652 9.3224-43.09 43.0523zm93.473-8.305v-18.1364l60.732-60.6801v18.1362zm-53.268-114.072-113.83 113.733v-18.1364l95.848-95.5966zm-113.83 13.3903v-13.3903h13.401zm60.732 168.6497h4.75l-60.732 60.68h-4.75v-13.22l60.732-60.85zm0-46.781v18.136l-60.732 60.68v-18.136zm38.339 46.781-60.732 60.68h-18.152l60.732-60.68zm128.759-113.3935v18.1362l-156.071 155.9373h-18.152l60.732-60.68h14.08l-6.785-7.288 43.089-43.052 2.375 2.712v-5.085zm0 51.5275-122.652 122.546h-17.982l140.634-140.513zm-92.455-59.4939 60.902-60.6801h17.982l-60.733 60.6801zm31.723 20.0007v-18.1362l60.732-60.68013v17.96673zm60.732 106.4442-55.643 55.595h-18.152l73.795-73.731zm0-33.391-89.062 88.986h-18.152l107.214-107.122z"/><path d="m227.831 376.852v18.137l-87.876 87.63-7.633-10.339zm-60.733-6.271 60.733-60.68v18.136l-60.733 60.68zm60.733-27.12v18.137l-102.126 102.037-7.803-10.339 43.428-43.391 5.768 7.627v-13.39zm-167.0988 33.561v17.628l-60.7322 60.68v-18.136l103.822-103.733 7.803 10.339-43.4285 43.392zm83.4648-50.51 50.723-50.511h18.152l-60.733 60.681h-8.142zm22.901 10.678 60.733-60.68v18.136l-60.733 60.68zm-12.384 63.901-43.428 43.391-7.804-10.339 43.429-43.392zm-93.9818 93.901-23.75 23.73h-18.1518l41.9018-41.866zm83.4648-201.871 17.303-17.12h17.982l-35.285 35.256zm-54.9648 121.868 43.4288-43.391 7.634 10.339-43.2592 43.392zm-14.4196-19.153 43.4284-43.222 7.804 10.34-43.4289 43.222zm-14.0804 32.205-60.7322 60.68v-17.967l60.7322-60.849zm0 82.206v8.475h-8.3125zm-60.7322-206.787 27.4822-27.459h18.1518l-45.634 45.595zm0-15.424v-12.035h12.2143zm0 82.376 75.1518-75.257 7.8036 10.339-82.9554 82.884zm0 51.527v-18.136l89.5715-89.495 7.8036 10.339zm0-66.952v-18.136l60.9018-60.85 7.8036 10.509zm144.197-77.291v-1.695h1.866zm-83.4648 165.769v18.136l-57.1697 57.121h-3.5625v-14.577zm167.0988 75.257h-8.143l8.143-8.136zm0-90.342-73.456 73.392-7.803-10.339 81.259-81.189zm0 15.424v18.136l-57.001 56.782h-3.732l-6.107-8.136zm0 51.527-23.411 23.391h-18.152l41.563-41.527z"/><path d="m261.929 387.7 60.732-60.68v18.136l-60.732 60.681zm0-48.645v-18.137l44.955-44.917h15.777v2.373zm0-33.561v-18.136l11.536-11.357h18.151zm0 115.767 60.732-60.68v18.136l-60.732 60.68zm21.036 97.461h-18.152l57.848-57.799v18.136zm-21.036-64.07 60.732-60.68v18.136l-60.732 60.68zm36.303 64.07 24.429-24.408v18.137l-6.277 6.271zm-36.303-30.679 60.732-60.68v18.136l-60.732 60.68zm0-133.734 60.732-60.68v18.136l-60.732 60.681z"/><path d="m364.393 369.225h18.152l-25.955 26.103v-18.137zm85.161 0-56.152 56.104h-18.152l56.152-56.104zm26.125 56.104 56.152-56.104h18.152l-56.152 56.104zm88.893-88.647 12.214-12.374v12.374zm-104.331 88.647h-17.982l56.152-56.104h18.152zm82.447 0 34.098-34.069v18.136l-16.116 15.933zm-11.705-88.647 45.803-45.765v18.137l-27.652 27.628zm-48.349 182.04 60.732-60.68h18.152l-60.732 60.68zm-73.964-93.393 56.152-56.104h18.152l-56.152 56.104zm168.116 50.849-42.411 42.544h-18.151l60.562-60.511zm0-50.849h-.678l.678-.678zm-49.536 0h-18.151l56.151-56.104h11.536v6.611zm-129.268-56.104h18.152l-56.321 56.104h-3.223v-14.747zm130.117 88.817-60.733 60.68h-18.151l60.732-60.68zm-33.42 0-60.732 60.68h-18.152l60.732-60.68zm82.107 51.697-8.991 8.983h-18.152l27.143-27.12zm-182.536-51.697-37.66 37.628v-18.136l19.509-19.492zm15.268 0h18.152l-60.732 60.68h-10.348v-7.797zm51.572 0-60.733 60.68h-18.151l60.732-60.68zm-100.429 0-4.071 4.068v-4.068zm69.893-121.36 60.732-60.681h18.152l-60.732 60.681zm-73.964-26.442 34.267-34.239h18.152l-52.419 52.375zm25.107 26.442h-17.982l60.732-60.681h18.152zm82.446 0 60.732-60.681h18.152l-60.902 60.681zm-67.009 0 60.732-60.681h18.152l-60.732 60.681zm118.581 0h-18.152l60.732-60.681h18.152zm-159.125-59.833.848-.848h18.152l-19 18.984z"/><path d="m838.545 336.682h-12.384l12.384-12.543zm0 139.496-42.75 42.544h-17.982l60.732-60.68zm-45.973-139.496 45.973-45.934v18.136l-27.821 27.798zm-33.42 0 60.733-60.681h18.151l-60.732 60.681zm-33.419 0 60.732-60.681h17.982l-60.732 60.681zm-73.116 91.02h-18.152l60.902-60.68h17.982zm-41.902 41.866v-11.526h11.536zm167.098-41.866h-9.33l60.732-60.68h9.33v8.814l-60.732 60.68zm60.732-3.221v18.137l-76.169 76.104h-18.152zm-115.866 33.561-60.732 60.68h-18.152l60.732-60.68zm33.589 0-60.901 60.68h-17.983l60.733-60.68zm54.965 60.68 27.312-27.289v18.136l-9.16 9.153zm-139.786-151.7h8.482l-60.732 60.68h-8.482v-9.662l60.732-60.68zm-15.607 91.02-45.125 44.917v-17.967l26.973-26.95zm182.705-48.815-109.589 109.495h-18.152l60.732-60.68h6.277v-6.272l60.732-60.68zm-137.071 18.475 60.732-60.68h18.152l-60.732 60.68zm33.419 0 60.902-60.68h17.982l-60.732 60.68zm-66.839 0 60.732-60.68h18.152l-60.732 60.68zm-57.339-43.053 108.741-108.648h18.152l-126.893 126.615zm99.58-47.967h-18.152l60.733-60.681h18.151zm-39.187 121.36h18.151l-60.732 60.68h-17.812v-.339zm-.509-182.041-59.884 59.833v-11.695l48.178-48.138zm-59.884 75.088 75.321-75.088h17.982l-93.303 93.224z"/></g></svg>