<svg width="226" height="48" viewBox="0 0 226 48" fill="none" xmlns="http://www.w3.org/2000/svg">
<path fill-rule="evenodd" clip-rule="evenodd" d="M9.23364 5.40839H24C34.2678 5.40839 42.5914 13.7322 42.5914 24C42.5914 34.2678 34.2678 42.5916 24 42.5916C13.7322 42.5916 5.40857 34.2678 5.40857 24H0C0 37.2548 10.745 48 24 48C28.2188 48 32.1833 46.9114 35.6279 45H45V35.6283C46.9116 32.1833 48 28.2189 48 24C48 10.7452 37.255 0 24 0H0V3.81757L14.3654 18.1886C13.34 19.8849 12.75 21.8734 12.75 24C12.75 30.2131 17.7869 35.25 24 35.25C30.2131 35.25 35.25 30.2131 35.25 24C35.25 17.7869 30.2131 12.75 24 12.75C21.8741 12.75 19.8856 13.3398 18.1897 14.3646L9.23364 5.40839ZM24 29.8416C27.2263 29.8416 29.8414 27.2261 29.8414 24C29.8414 20.7739 27.2263 18.1584 24 18.1584C20.7737 18.1584 18.1586 20.7739 18.1586 24C18.1586 27.2261 20.7737 29.8416 24 29.8416Z" fill="white"/>
<path d="M143.867 9.81686H149.173L158.954 27.7949V9.81686H163.904V37.5362H158.598L148.817 19.5583V37.5362H143.867V9.81686Z" fill="white"/>
<path d="M174.98 9.81686H170.03V37.5362H174.98V9.81686Z" fill="white"/>
<path d="M181.157 37.4966V9.81686H199.452V14.7667H186.107V21.1026H199.452V26.0525H186.107V32.5864H199.452V37.5362H182.939V37.4966H181.157Z" fill="white"/>
<path d="M204.93 15.4004V20.3106C204.93 22.1058 205.419 23.5181 206.395 24.5477C207.372 25.5773 208.719 26.0921 210.435 26.0921H218.632C218.975 26.0921 219.239 26.1185 219.424 26.1713C219.635 26.2241 219.793 26.3297 219.899 26.4881C220.004 26.6201 220.07 26.8313 220.097 27.1217C220.15 27.3857 220.176 27.7421 220.176 28.1908V31.24C220.176 31.636 220.07 31.9528 219.859 32.1904C219.648 32.428 219.305 32.5468 218.83 32.5468H206.356V37.5362H218.83C219.754 37.5362 220.598 37.3911 221.364 37.1006C222.156 36.8103 222.829 36.4011 223.383 35.8731C223.938 35.3451 224.373 34.7247 224.69 34.0119C225.007 33.2727 225.165 32.4676 225.165 31.5964V28.1908C225.165 27.5045 225.126 26.7785 225.047 26.0129C224.994 25.2473 224.743 24.5081 224.294 23.7954C223.265 22.0266 221.377 21.1422 218.632 21.1422H210.87C210.58 21.1422 210.342 21.0234 210.157 20.7858C209.999 20.5482 209.92 20.2578 209.92 19.9146V15.9943C209.92 15.7039 209.999 15.4399 210.157 15.2023C210.342 14.9383 210.58 14.8064 210.87 14.8064H223.74V9.81686H210.435C208.692 9.81686 207.333 10.3185 206.356 11.3216C205.405 12.2984 204.93 13.658 204.93 15.4004Z" fill="white"/>
<path fill-rule="evenodd" clip-rule="evenodd" d="M64.7763 37.5362V9.81686H77.4083C77.9364 9.81686 78.6623 9.90926 79.5864 10.0941C80.5368 10.2525 81.4739 10.6485 82.3979 11.282C83.3483 11.8892 84.1666 12.7868 84.853 13.9748C85.5394 15.1628 85.8826 16.7731 85.8826 18.8059V28.5472C85.8826 30.58 85.5394 32.1904 84.853 33.3783C84.1666 34.5663 83.3483 35.4771 82.3979 36.1107C81.4739 36.7179 80.5368 37.1138 79.5864 37.2986C78.6623 37.457 77.9364 37.5362 77.4083 37.5362H64.7763ZM77.4083 32.5864H69.7261V14.7667H77.4083C77.5668 14.7667 77.8308 14.7931 78.2004 14.8459C78.5964 14.8723 78.9923 15.0175 79.3883 15.2815C79.8107 15.5191 80.1671 15.9151 80.4575 16.4695C80.7743 17.0239 80.9327 17.8027 80.9327 18.8059V28.5472C80.9327 29.5504 80.7743 30.3292 80.4575 30.8836C80.1671 31.438 79.8107 31.8472 79.3883 32.1112C78.9923 32.3488 78.5964 32.494 78.2004 32.5468C77.8308 32.5732 77.5668 32.5864 77.4083 32.5864Z" fill="white"/>
<path fill-rule="evenodd" clip-rule="evenodd" d="M96.6982 37.5338H91.7483V9.81445H106.281C108.024 9.81445 109.37 10.316 110.32 11.3192C111.297 12.296 111.786 13.6556 111.786 15.3979V21.3051C111.786 23.0474 111.297 24.407 110.32 25.3838C109.553 26.1942 108.526 26.6773 107.242 26.833L111.706 37.5338H106.548L102.093 26.8885H96.7181V26.9213H96.6982V37.5338ZM96.6982 14.7643V21.9387H106.281C106.572 21.9387 106.73 21.899 106.756 21.8198C106.809 21.7671 106.836 21.5955 106.836 21.3051V15.3979C106.836 15.1075 106.809 14.9359 106.756 14.8832C106.73 14.804 106.572 14.7643 106.281 14.7643H96.6982Z" fill="white"/>
<path fill-rule="evenodd" clip-rule="evenodd" d="M117.626 31.9528V15.4004C117.626 13.658 118.101 12.2984 119.052 11.3216C120.028 10.3185 121.388 9.81686 123.13 9.81686H132.198C133.941 9.81686 135.287 10.3185 136.237 11.3216C137.214 12.2984 137.703 13.658 137.703 15.4004V31.9528C137.703 33.6951 137.214 35.0679 136.237 36.0711C135.287 37.0479 133.941 37.5362 132.198 37.5362H123.13C121.388 37.5362 120.028 37.0479 119.052 36.0711C118.101 35.0679 117.626 33.6951 117.626 31.9528ZM122.615 31.438V15.9943C122.615 15.7039 122.708 15.4267 122.893 15.1628C123.104 14.8988 123.355 14.7667 123.645 14.7667H131.525C131.816 14.7667 132.08 14.8988 132.317 15.1628C132.581 15.4267 132.713 15.7039 132.713 15.9943V31.438C132.713 31.7548 132.581 32.0188 132.317 32.23C132.08 32.4411 131.816 32.5468 131.525 32.5468H123.645C123.355 32.5468 123.104 32.4411 122.893 32.23C122.708 32.0188 122.615 31.7548 122.615 31.438Z" fill="white"/>
</svg>
