<svg fill="none" height="24" viewBox="0 0 95 24" width="95" xmlns="http://www.w3.org/2000/svg" xmlns:xlink="http://www.w3.org/1999/xlink"><clipPath id="a"><path d="m62 4h33v16h-33z"/></clipPath><g clip-path="url(#a)"><path d="m94.1111 4.55556c0 2.04278-.4023 4.06556-1.1841 5.95284-.7817 1.8873-1.9275 3.6021-3.372 5.0466s-3.1593 2.5903-5.0466 3.372c-1.8873.7818-3.9101 1.1841-5.9528 1.1841-2.0428 0-4.0656-.4023-5.9529-1.1841-1.8873-.7817-3.6021-1.9275-5.0466-3.372s-2.5903-3.1593-3.372-5.0466c-.7817-1.88728-1.1841-3.91006-1.1841-5.95285l15.5556.00001z" fill="#f05"/></g><path d="m39.0402 16 2.9347-4.5514-2.9749-4.4486h1.9698l2.1039 3.1371 1.9296-3.1371h1.9297l-2.9347 4.5257 3.0017 4.4743h-1.9698l-2.1307-3.1757-1.9297 3.1757z" fill="#fff"/><path clip-rule="evenodd" d="m4.61682 2.70419h7.38318c5.1339 0 9.2957 4.1619 9.2957 9.29581 0 5.1339-4.1618 9.2958-9.2957 9.2958-5.13391 0-9.29572-4.1619-9.29572-9.2958h-2.70428c0 6.6274 5.3725 12 12 12 2.1094 0 4.0917-.5443 5.814-1.5h4.686v-4.6859c.9558-1.7224 1.5-3.7046 1.5-5.8141 0-6.62741-5.3725-12-12-12h-12v1.90878l7.18268 7.18552c-.5127.84814-.80768 1.8424-.80768 2.9057 0 3.1066 2.51843 5.625 5.625 5.625 3.1066 0 5.625-2.5184 5.625-5.625 0-3.10657-2.5184-5.625-5.625-5.625-1.0629 0-2.05719.29489-2.90515.80731zm7.38318 12.21661c1.6132 0 2.9207-1.3077 2.9207-2.9208s-1.3075-2.92081-2.9207-2.92081-2.92072 1.30771-2.92072 2.92081 1.30752 2.9208 2.92072 2.9208z" fill="#95e79a" fill-rule="evenodd"/></svg>