<svg fill="none" height="13" viewBox="0 0 13 13" width="13" xmlns="http://www.w3.org/2000/svg"><path d="m6.09555 4.54466v.73725c0 .39779-.32247.72026-.72026.72026h-4.561646c-.397789 0-.7202602.32247-.7202602.72026v4.56167c0 .3978.3224712.7202.7202602.7202h4.561646c.39779 0 .72026-.3224.72026-.7202v-4.56167c0-.39779.32247-.72026.72026-.72026h4.56169c.3977 0 .7202-.32247.7202-.72026v-4.561649c0-.397789-.3225-.720261-.7202-.720261h-4.62786c-.3602 0-.65219.291999-.65219.652198v3.892462z" fill="#00e0b8"/></svg>