<svg width="60" height="60" viewBox="0 0 60 60" fill="none" xmlns="http://www.w3.org/2000/svg">
<path d="M40.3404 24.6014C40.3569 24.8456 40.3569 25.0897 40.3569 25.336C40.3569 32.8428 34.7607 41.5005 24.5277 41.5005V41.496C21.5048 41.5005 18.5448 40.6163 16 38.9491C16.4395 39.0031 16.8813 39.0301 17.3242 39.0312C19.8292 39.0335 22.2627 38.1751 24.2335 36.5946C21.8529 36.5484 19.7654 34.9634 19.0361 32.6494C19.87 32.8136 20.7293 32.7798 21.5478 32.5515C18.9524 32.016 17.0851 29.6874 17.0851 26.983C17.0851 26.9582 17.0851 26.9346 17.0851 26.911C17.8584 27.3508 18.7243 27.5949 19.61 27.6219C17.1655 25.9536 16.412 22.6328 17.8882 20.0364C20.7128 23.5856 24.8802 25.7433 29.3539 25.9716C28.9055 23.9985 29.518 21.9308 30.9634 20.5437C33.2041 18.3928 36.7282 18.5031 38.8345 20.7901C40.0804 20.5392 41.2746 20.0724 42.3674 19.4109C41.9521 20.726 41.0829 21.8431 39.9218 22.5529C41.0245 22.4202 42.1019 22.1187 43.1165 21.6586C42.3696 22.8015 41.4288 23.7971 40.3404 24.6014Z" fill="#79F080"/>
</svg>
