<svg width="60" height="60" viewBox="0 0 60 60" fill="none" xmlns="http://www.w3.org/2000/svg">
<path d="M30 41C33.9 39.1 36 34.9 36 30C36 25.1 33.9 20.9 30 19" stroke="#79F080" stroke-width="2" stroke-linecap="round" stroke-linejoin="round"/>
<path d="M30 41C26.1 39.1 24 34.9 24 30C24 25.1 26.1 20.9 30 19" stroke="#79F080" stroke-width="2" stroke-linecap="round" stroke-linejoin="round"/>
<path d="M30 41V40V20V19" stroke="#79F080" stroke-width="2" stroke-linecap="round" stroke-linejoin="round"/>
<path d="M19 30H41" stroke="#79F080" stroke-width="2" stroke-linecap="round" stroke-linejoin="round"/>
<path d="M30 41C36.0751 41 41 36.0751 41 30C41 23.9249 36.0751 19 30 19C23.9249 19 19 23.9249 19 30C19 36.0751 23.9249 41 30 41Z" stroke="#79F080" stroke-width="2" stroke-linecap="round" stroke-linejoin="round"/>
</svg>
