<svg width="60" height="60" viewBox="0 0 60 60" fill="none" xmlns="http://www.w3.org/2000/svg">
<path d="M39.2142 21.7001C37.5167 20.9059 35.7016 20.3287 33.804 20C33.571 20.4213 33.2987 20.9881 33.111 21.4389C31.0938 21.1355 29.0951 21.1355 27.115 21.4389C26.9273 20.9881 26.6489 20.4213 26.4137 20C24.5141 20.3287 22.6969 20.908 20.9994 21.7043C17.5754 26.8783 16.6473 31.9238 17.1114 36.8977C19.3823 38.5935 21.5831 39.6237 23.7468 40.2979C24.281 39.5626 24.7574 38.781 25.1679 37.9573C24.3862 37.6603 23.6374 37.2937 22.93 36.8682C23.1177 36.7291 23.3013 36.5838 23.4786 36.4342C27.7936 38.4524 32.4819 38.4524 36.7453 36.4342C36.9248 36.5838 37.1083 36.7291 37.2939 36.8682C36.5844 37.2958 35.8336 37.6624 35.0519 37.9595C35.4624 38.7811 35.9368 39.5647 36.473 40.3C38.6388 39.6258 40.8416 38.5957 43.1126 36.8977C43.6571 31.1317 42.1824 26.1326 39.2142 21.7001ZM25.7557 33.8388C24.4604 33.8388 23.3982 32.6296 23.3982 31.157C23.3982 29.6844 24.4377 28.4731 25.7557 28.4731C27.0738 28.4731 28.136 29.6823 28.1133 31.157C28.1154 32.6296 27.0738 33.8388 25.7557 33.8388ZM34.4682 33.8388C33.1729 33.8388 32.1106 32.6296 32.1106 31.157C32.1106 29.6844 33.1502 28.4731 34.4682 28.4731C35.7862 28.4731 36.8484 29.6823 36.8258 31.157C36.8258 32.6296 35.7862 33.8388 34.4682 33.8388Z" fill="#79F080"/>
</svg>
